<svg width="200" height="200" viewBox="0 0 200 200" fill="none" xmlns="http://www.w3.org/2000/svg">
<g clip-path="url(#clip0_607_16)">
<path d="M174.27 0.00361808H26.1591C26.015 0.00120614 25.871 7.72211e-08 25.7269 0C11.5171 0.00201004 -2.09514e-05 11.5228 0.00158708 25.7322V173.843C0.0486221 188.27 11.7322 199.953 26.1591 200H174.27C188.529 199.721 199.955 188.105 199.998 173.843V25.7322C199.998 11.5228 188.479 0.00361808 174.27 0.00361808Z" fill="black"/>
</g>
<mask id="path-2-outside-1_607_16" maskUnits="userSpaceOnUse" x="30" y="43" width="91" height="117" fill="black">
<rect fill="white" x="30" y="43" width="91" height="117"/>
<path d="M99.0164 157.4C95.0164 157.4 91.4564 156.6 88.3364 155C85.2964 153.48 82.8964 151.2 81.1364 148.16C79.3764 145.12 78.4964 141.48 78.4964 137.24C78.4964 136.2 78.5364 135.12 78.6164 134C78.6964 132.96 78.8164 131.88 78.9764 130.76C72.4164 131.16 66.3364 130.4 60.7364 128.48C55.1364 126.56 50.2564 123.72 46.0964 119.96C41.9364 116.12 38.6964 111.52 36.3764 106.16C34.0564 100.72 32.8964 94.76 32.8964 88.28C32.8964 82.36 33.8964 76.84 35.8964 71.72C37.8964 66.52 40.7764 61.96 44.5364 58.04C48.2964 54.12 52.8164 51.08 58.0964 48.92C63.4564 46.68 69.3764 45.56 75.8564 45.56C82.3364 45.56 88.2164 46.64 93.4964 48.8C98.7764 50.96 103.296 54 107.056 57.92C110.816 61.76 113.696 66.2 115.696 71.24C117.776 76.28 118.816 81.72 118.816 87.56V135.92C118.816 140.24 118.016 144 116.416 147.2C114.816 150.48 112.536 153 109.576 154.76C106.696 156.52 103.176 157.4 99.0164 157.4ZM98.2964 147.08C100.936 147.08 103.096 146.12 104.776 144.2C106.456 142.36 107.296 139.68 107.296 136.16V107.6C103.216 110.24 99.9764 112.92 97.5764 115.64C95.1764 118.36 93.3764 121 92.1764 123.56C91.0564 126.12 90.2964 128.48 89.8964 130.64C89.5764 132.8 89.4164 134.6 89.4164 136.04C89.4164 138.36 89.8164 140.32 90.6164 141.92C91.4964 143.6 92.6164 144.88 93.9764 145.76C95.3364 146.64 96.7764 147.08 98.2964 147.08ZM75.8564 120.92C77.1364 120.92 78.3364 120.88 79.4564 120.8C80.5764 120.64 81.7764 120.4 83.0564 120.08C84.1764 117.36 85.7364 114.6 87.7364 111.8C89.8164 109 92.4164 106.24 95.5364 103.52C98.7364 100.72 102.656 98.12 107.296 95.72V87.56C107.296 83 106.496 78.8 104.896 74.96C103.376 71.04 101.176 67.68 98.2964 64.88C95.4964 62 92.1764 59.76 88.3364 58.16C84.4964 56.48 80.3364 55.64 75.8564 55.64C71.2964 55.64 67.0964 56.48 63.2564 58.16C59.4964 59.76 56.1764 62.04 53.2964 65C50.4964 67.96 48.2964 71.44 46.6964 75.44C45.1764 79.36 44.4164 83.64 44.4164 88.28C44.4164 92.92 45.1764 97.24 46.6964 101.24C48.2964 105.16 50.4964 108.6 53.2964 111.56C56.1764 114.52 59.4964 116.84 63.2564 118.52C67.0964 120.12 71.2964 120.92 75.8564 120.92Z"/>
</mask>
<path d="M99.0164 157.4C95.0164 157.4 91.4564 156.6 88.3364 155C85.2964 153.48 82.8964 151.2 81.1364 148.16C79.3764 145.12 78.4964 141.48 78.4964 137.24C78.4964 136.2 78.5364 135.12 78.6164 134C78.6964 132.96 78.8164 131.88 78.9764 130.76C72.4164 131.16 66.3364 130.4 60.7364 128.48C55.1364 126.56 50.2564 123.72 46.0964 119.96C41.9364 116.12 38.6964 111.52 36.3764 106.16C34.0564 100.72 32.8964 94.76 32.8964 88.28C32.8964 82.36 33.8964 76.84 35.8964 71.72C37.8964 66.52 40.7764 61.96 44.5364 58.04C48.2964 54.12 52.8164 51.08 58.0964 48.92C63.4564 46.68 69.3764 45.56 75.8564 45.56C82.3364 45.56 88.2164 46.64 93.4964 48.8C98.7764 50.96 103.296 54 107.056 57.92C110.816 61.76 113.696 66.2 115.696 71.24C117.776 76.28 118.816 81.72 118.816 87.56V135.92C118.816 140.24 118.016 144 116.416 147.2C114.816 150.48 112.536 153 109.576 154.76C106.696 156.52 103.176 157.4 99.0164 157.4ZM98.2964 147.08C100.936 147.08 103.096 146.12 104.776 144.2C106.456 142.36 107.296 139.68 107.296 136.16V107.6C103.216 110.24 99.9764 112.92 97.5764 115.64C95.1764 118.36 93.3764 121 92.1764 123.56C91.0564 126.12 90.2964 128.48 89.8964 130.64C89.5764 132.8 89.4164 134.6 89.4164 136.04C89.4164 138.36 89.8164 140.32 90.6164 141.92C91.4964 143.6 92.6164 144.88 93.9764 145.76C95.3364 146.64 96.7764 147.08 98.2964 147.08ZM75.8564 120.92C77.1364 120.92 78.3364 120.88 79.4564 120.8C80.5764 120.64 81.7764 120.4 83.0564 120.08C84.1764 117.36 85.7364 114.6 87.7364 111.8C89.8164 109 92.4164 106.24 95.5364 103.52C98.7364 100.72 102.656 98.12 107.296 95.72V87.56C107.296 83 106.496 78.8 104.896 74.96C103.376 71.04 101.176 67.68 98.2964 64.88C95.4964 62 92.1764 59.76 88.3364 58.16C84.4964 56.48 80.3364 55.64 75.8564 55.64C71.2964 55.64 67.0964 56.48 63.2564 58.16C59.4964 59.76 56.1764 62.04 53.2964 65C50.4964 67.96 48.2964 71.44 46.6964 75.44C45.1764 79.36 44.4164 83.64 44.4164 88.28C44.4164 92.92 45.1764 97.24 46.6964 101.24C48.2964 105.16 50.4964 108.6 53.2964 111.56C56.1764 114.52 59.4964 116.84 63.2564 118.52C67.0964 120.12 71.2964 120.92 75.8564 120.92Z" fill="white"/>
<path d="M88.3364 155L89.249 153.22L89.2399 153.216L89.2308 153.211L88.3364 155ZM81.1364 148.16L82.8672 147.158L82.8672 147.158L81.1364 148.16ZM78.6164 134L76.6222 133.847L76.6215 133.858L78.6164 134ZM78.9764 130.76L80.9563 131.043L81.3032 128.614L78.8546 128.764L78.9764 130.76ZM60.7364 128.48L61.385 126.588L61.385 126.588L60.7364 128.48ZM46.0964 119.96L44.7398 121.43L44.7475 121.437L44.7553 121.444L46.0964 119.96ZM36.3764 106.16L34.5367 106.945L34.5409 106.954L36.3764 106.16ZM35.8964 71.72L37.7593 72.4477L37.7631 72.438L35.8964 71.72ZM44.5364 58.04L43.093 56.6555L43.093 56.6555L44.5364 58.04ZM58.0964 48.92L58.8536 50.7711L58.8606 50.7682L58.8676 50.7653L58.0964 48.92ZM93.4964 48.8L94.2536 46.9489L94.2536 46.9489L93.4964 48.8ZM107.056 57.92L105.613 59.3044L105.62 59.3119L105.627 59.3192L107.056 57.92ZM115.696 71.24L113.837 71.9777L113.842 71.9904L113.848 72.003L115.696 71.24ZM116.416 147.2L114.628 146.306L114.623 146.314L114.619 146.323L116.416 147.2ZM109.576 154.76L108.554 153.041L108.544 153.047L108.533 153.053L109.576 154.76ZM104.776 144.2L103.299 142.851L103.285 142.867L103.271 142.883L104.776 144.2ZM107.296 107.6H109.296V103.924L106.21 105.921L107.296 107.6ZM97.5764 115.64L99.076 116.963L99.076 116.963L97.5764 115.64ZM92.1764 123.56L90.3655 122.711L90.3544 122.735L90.3441 122.758L92.1764 123.56ZM89.8964 130.64L87.9298 130.276L87.9232 130.311L87.918 130.347L89.8964 130.64ZM90.6164 141.92L88.8275 142.814L88.836 142.831L88.8447 142.848L90.6164 141.92ZM93.9764 145.76L92.8899 147.439L92.8899 147.439L93.9764 145.76ZM79.4564 120.8L79.5989 122.795L79.6693 122.79L79.7392 122.78L79.4564 120.8ZM83.0564 120.08L83.5414 122.02L84.5212 121.775L84.9057 120.842L83.0564 120.08ZM87.7364 111.8L86.1309 110.607L86.1198 110.622L86.1089 110.638L87.7364 111.8ZM95.5364 103.52L96.8506 105.028L96.8534 105.025L95.5364 103.52ZM107.296 95.72L108.215 97.4964L109.296 96.9372V95.72H107.296ZM104.896 74.96L103.032 75.6831L103.041 75.7063L103.05 75.7292L104.896 74.96ZM98.2964 64.88L96.8624 66.2742L96.882 66.2944L96.9022 66.314L98.2964 64.88ZM88.3364 58.16L87.5347 59.9923L87.5509 59.9994L87.5671 60.0061L88.3364 58.16ZM63.2564 58.16L64.0395 60.0003L64.0488 59.9964L64.058 59.9923L63.2564 58.16ZM53.2964 65L51.8629 63.6053L51.8531 63.6154L51.8434 63.6256L53.2964 65ZM46.6964 75.44L44.8394 74.6972L44.8355 74.7071L44.8316 74.7169L46.6964 75.44ZM46.6964 101.24L44.8268 101.95L44.8355 101.973L44.8447 101.996L46.6964 101.24ZM53.2964 111.56L51.8434 112.934L51.8531 112.945L51.8629 112.955L53.2964 111.56ZM63.2564 118.52L62.4405 120.346L62.4637 120.356L62.4871 120.366L63.2564 118.52ZM99.0164 155.4C95.2888 155.4 92.0491 154.656 89.249 153.22L87.4237 156.78C90.8636 158.544 94.744 159.4 99.0164 159.4V155.4ZM89.2308 153.211C86.5527 151.872 84.4383 149.872 82.8672 147.158L79.4055 149.162C81.3545 152.528 84.04 155.088 87.4419 156.789L89.2308 153.211ZM82.8672 147.158C81.3167 144.48 80.4964 141.201 80.4964 137.24H76.4964C76.4964 141.759 77.436 145.76 79.4055 149.162L82.8672 147.158ZM80.4964 137.24C80.4964 136.251 80.5344 135.219 80.6113 134.142L76.6215 133.858C76.5383 135.021 76.4964 136.149 76.4964 137.24H80.4964ZM80.6105 134.153C80.6869 133.16 80.8019 132.123 80.9563 131.043L76.9965 130.477C76.8308 131.637 76.7059 132.76 76.6223 133.847L80.6105 134.153ZM78.8546 128.764C72.527 129.15 66.7116 128.414 61.385 126.588L60.0877 130.372C65.9611 132.386 72.3057 133.17 79.0981 132.756L78.8546 128.764ZM61.385 126.588C56.0266 124.751 51.3856 122.045 47.4374 118.476L44.7553 121.444C49.1272 125.395 54.2462 128.369 60.0877 130.372L61.385 126.588ZM47.4529 118.49C43.5044 114.846 40.4246 110.478 38.2118 105.366L34.5409 106.954C36.9681 112.562 40.3683 117.394 44.7398 121.43L47.4529 118.49ZM38.2161 105.375C36.0116 100.206 34.8964 94.5163 34.8964 88.28H30.8964C30.8964 95.0037 32.1012 101.234 34.5367 106.945L38.2161 105.375ZM34.8964 88.28C34.8964 82.5897 35.8566 77.3185 37.7593 72.4477L34.0335 70.9923C31.9361 76.3615 30.8964 82.1303 30.8964 88.28H34.8964ZM37.7631 72.438C39.6702 67.4795 42.4085 63.1476 45.9797 59.4244L43.093 56.6555C39.1442 60.7724 36.1226 65.5605 34.0297 71.002L37.7631 72.438ZM45.9797 59.4244C49.5365 55.7163 53.8192 52.8306 58.8536 50.7711L57.3391 47.0689C51.8136 49.3293 47.0563 52.5236 43.093 56.6555L45.9797 59.4244ZM58.8676 50.7653C63.9565 48.6386 69.6106 47.56 75.8564 47.56V43.56C69.1422 43.56 62.9562 44.7214 57.3252 47.0747L58.8676 50.7653ZM75.8564 47.56C82.1118 47.56 87.7299 48.6019 92.7391 50.6511L94.2536 46.9489C88.7028 44.6781 82.561 43.56 75.8564 43.56V47.56ZM92.7391 50.6511C97.7736 52.7106 102.056 55.5963 105.613 59.3044L108.5 56.5355C104.536 52.4036 99.7792 49.2093 94.2536 46.9489L92.7391 50.6511ZM105.627 59.3192C109.2 62.9677 111.934 67.1823 113.837 71.9777L117.555 70.5023C115.458 65.2177 112.433 60.5523 108.485 56.5207L105.627 59.3192ZM113.848 72.003C115.821 76.7842 116.816 81.963 116.816 87.56H120.816C120.816 81.477 119.732 75.7758 117.545 70.477L113.848 72.003ZM116.816 87.56V135.92H120.816V87.56H116.816ZM116.816 135.92C116.816 139.993 116.063 143.435 114.628 146.306L118.205 148.094C119.97 144.565 120.816 140.487 120.816 135.92H116.816ZM114.619 146.323C113.179 149.275 111.159 151.492 108.554 153.041L110.599 156.479C113.914 154.508 116.454 151.685 118.214 148.077L114.619 146.323ZM108.533 153.053C106.033 154.581 102.894 155.4 99.0164 155.4V159.4C103.459 159.4 107.36 158.459 110.619 156.467L108.533 153.053ZM98.2964 149.08C101.49 149.08 104.207 147.888 106.282 145.517L103.271 142.883C101.986 144.352 100.383 145.08 98.2964 145.08V149.08ZM106.253 145.549C108.387 143.212 109.296 139.973 109.296 136.16H105.296C105.296 139.387 104.526 141.508 103.299 142.851L106.253 145.549ZM109.296 136.16V107.6H105.296V136.16H109.296ZM106.21 105.921C102.025 108.629 98.6305 111.422 96.0767 114.317L99.076 116.963C101.322 114.418 104.408 111.851 108.383 109.279L106.21 105.921ZM96.0767 114.317C93.5845 117.141 91.6652 119.938 90.3655 122.711L93.9873 124.409C95.0876 122.062 96.7682 119.579 99.076 116.963L96.0767 114.317ZM90.3441 122.758C89.1784 125.423 88.364 127.931 87.9298 130.276L91.8629 131.004C92.2287 129.029 92.9343 126.817 94.0087 124.362L90.3441 122.758ZM87.918 130.347C87.5901 132.56 87.4164 134.466 87.4164 136.04H91.4164C91.4164 134.734 91.5626 133.04 91.8748 130.933L87.918 130.347ZM87.4164 136.04C87.4164 138.582 87.8537 140.867 88.8275 142.814L92.4052 141.026C91.779 139.773 91.4164 138.138 91.4164 136.04H87.4164ZM88.8447 142.848C89.8571 144.781 91.1946 146.342 92.8899 147.439L95.0629 144.081C94.0381 143.418 93.1356 142.419 92.388 140.992L88.8447 142.848ZM92.8899 147.439C94.5513 148.514 96.3651 149.08 98.2964 149.08V145.08C97.1876 145.08 96.1215 144.766 95.0629 144.081L92.8899 147.439ZM75.8564 122.92C77.1775 122.92 78.4254 122.879 79.5989 122.795L79.3139 118.805C78.2473 118.881 77.0953 118.92 75.8564 118.92V122.92ZM79.7392 122.78C80.9373 122.609 82.2054 122.354 83.5414 122.02L82.5713 118.14C81.3473 118.446 80.2154 118.671 79.1735 118.82L79.7392 122.78ZM84.9057 120.842C85.9585 118.285 87.4383 115.658 89.3638 112.962L86.1089 110.638C84.0345 113.542 82.3942 116.435 81.207 119.318L84.9057 120.842ZM89.3419 112.993C91.3223 110.327 93.8193 107.67 96.8506 105.028L94.2221 102.012C91.0134 104.81 88.3105 107.673 86.1309 110.607L89.3419 112.993ZM96.8534 105.025C99.9082 102.352 103.687 99.8385 108.215 97.4964L106.378 93.9436C101.626 96.4015 97.5645 99.0878 94.2194 102.015L96.8534 105.025ZM109.296 95.72V87.56H105.296V95.72H109.296ZM109.296 87.56C109.296 82.7615 108.453 78.297 106.743 74.1908L103.05 75.7292C104.539 79.303 105.296 83.2385 105.296 87.56H109.296ZM106.761 74.2369C105.142 70.0617 102.786 66.4558 99.6905 63.446L96.9022 66.314C99.5665 68.9042 101.611 72.0183 103.032 75.6831L106.761 74.2369ZM99.7304 63.4858C96.7349 60.4048 93.1864 58.0142 89.1056 56.3138L87.5671 60.0061C91.1664 61.5058 94.2579 63.5952 96.8624 66.2742L99.7304 63.4858ZM89.138 56.3277C85.0281 54.5296 80.593 53.64 75.8564 53.64V57.64C80.0797 57.64 83.9646 58.4304 87.5347 59.9923L89.138 56.3277ZM75.8564 53.64C71.045 53.64 66.569 54.5277 62.4547 56.3277L64.058 59.9923C67.6237 58.4323 71.5478 57.64 75.8564 57.64V53.64ZM62.4733 56.3197C58.4664 58.0247 54.926 60.4572 51.8629 63.6053L54.7298 66.3947C57.4268 63.6228 60.5263 61.4953 64.0395 60.0003L62.4733 56.3197ZM51.8434 63.6256C48.8604 66.7791 46.5276 70.4767 44.8394 74.6972L48.5533 76.1828C50.0651 72.4033 52.1324 69.1409 54.7493 66.3744L51.8434 63.6256ZM44.8316 74.7169C43.2134 78.8903 42.4164 83.4183 42.4164 88.28H46.4164C46.4164 83.8617 47.1393 79.8297 48.5611 76.1631L44.8316 74.7169ZM42.4164 88.28C42.4164 93.1422 43.2136 97.7051 44.8268 101.95L48.5659 100.53C47.1392 96.7749 46.4164 92.6978 46.4164 88.28H42.4164ZM44.8447 101.996C46.5345 106.136 48.8668 109.788 51.8434 112.934L54.7493 110.186C52.126 107.412 50.0583 104.184 48.5481 100.484L44.8447 101.996ZM51.8629 112.955C54.9191 116.096 58.4485 118.562 62.4405 120.346L64.0723 116.694C60.5442 115.118 57.4337 112.944 54.7298 110.165L51.8629 112.955ZM62.4871 120.366C66.5934 122.077 71.0578 122.92 75.8564 122.92V118.92C71.5349 118.92 67.5994 118.163 64.0256 116.674L62.4871 120.366Z" fill="white" mask="url(#path-2-outside-1_607_16)"/>
<mask id="path-4-outside-2_607_16" maskUnits="userSpaceOnUse" x="107.049" y="51.4286" width="61" height="88" fill="black">
<rect fill="white" x="107.049" y="51.4286" width="61" height="88"/>
<path d="M133.116 137.429C128.476 137.429 124.356 136.349 120.756 134.189C117.236 131.949 114.476 129.029 112.476 125.429C110.476 121.829 109.476 117.909 109.476 113.669C109.476 109.829 110.356 106.229 112.116 102.869C113.956 99.5086 116.596 96.8686 120.036 94.9486C116.676 92.7886 114.116 90.1086 112.356 86.9086C110.596 83.7086 109.716 80.3486 109.716 76.8286C109.716 72.5086 110.716 68.5886 112.716 65.0686C114.796 61.5486 117.596 58.7486 121.116 56.6686C124.636 54.5086 128.516 53.4286 132.756 53.4286H165.996V63.6286H134.076C131.596 63.6286 129.396 64.2286 127.476 65.4286C125.556 66.6286 124.036 68.2286 122.916 70.2286C121.796 72.1486 121.236 74.3486 121.236 76.8286C121.236 79.1486 121.796 81.2686 122.916 83.1886C124.116 85.1086 125.716 86.6686 127.716 87.8686C129.716 88.9886 131.916 89.5486 134.316 89.5486H161.556V99.7486H135.156C132.196 99.7486 129.636 100.429 127.476 101.789C125.396 103.069 123.756 104.789 122.556 106.949C121.436 109.029 120.876 111.269 120.876 113.669C120.876 116.069 121.436 118.309 122.556 120.389C123.676 122.469 125.276 124.149 127.356 125.429C129.436 126.629 131.876 127.229 134.676 127.229H165.996V137.429H133.116Z"/>
</mask>
<path d="M133.116 137.429C128.476 137.429 124.356 136.349 120.756 134.189C117.236 131.949 114.476 129.029 112.476 125.429C110.476 121.829 109.476 117.909 109.476 113.669C109.476 109.829 110.356 106.229 112.116 102.869C113.956 99.5086 116.596 96.8686 120.036 94.9486C116.676 92.7886 114.116 90.1086 112.356 86.9086C110.596 83.7086 109.716 80.3486 109.716 76.8286C109.716 72.5086 110.716 68.5886 112.716 65.0686C114.796 61.5486 117.596 58.7486 121.116 56.6686C124.636 54.5086 128.516 53.4286 132.756 53.4286H165.996V63.6286H134.076C131.596 63.6286 129.396 64.2286 127.476 65.4286C125.556 66.6286 124.036 68.2286 122.916 70.2286C121.796 72.1486 121.236 74.3486 121.236 76.8286C121.236 79.1486 121.796 81.2686 122.916 83.1886C124.116 85.1086 125.716 86.6686 127.716 87.8686C129.716 88.9886 131.916 89.5486 134.316 89.5486H161.556V99.7486H135.156C132.196 99.7486 129.636 100.429 127.476 101.789C125.396 103.069 123.756 104.789 122.556 106.949C121.436 109.029 120.876 111.269 120.876 113.669C120.876 116.069 121.436 118.309 122.556 120.389C123.676 122.469 125.276 124.149 127.356 125.429C129.436 126.629 131.876 127.229 134.676 127.229H165.996V137.429H133.116Z" fill="white"/>
<path d="M120.756 134.189L119.682 135.876L119.704 135.89L119.727 135.904L120.756 134.189ZM112.476 125.429L114.224 124.457L112.476 125.429ZM112.116 102.869L110.362 101.908L110.353 101.924L110.344 101.941L112.116 102.869ZM120.036 94.9486L121.011 96.695L123.923 95.0696L121.117 93.2662L120.036 94.9486ZM112.356 86.9086L114.108 85.9447L114.108 85.9447L112.356 86.9086ZM112.716 65.0686L110.994 64.0511L110.985 64.0658L110.977 64.0805L112.716 65.0686ZM121.116 56.6686L122.133 58.3904L122.148 58.3819L122.162 58.3732L121.116 56.6686ZM165.996 53.4286H167.996V51.4286H165.996V53.4286ZM165.996 63.6286V65.6286H167.996V63.6286H165.996ZM122.916 70.2286L124.643 71.2363L124.652 71.2211L124.661 71.2058L122.916 70.2286ZM122.916 83.1886L121.188 84.1963L121.204 84.2227L121.22 84.2486L122.916 83.1886ZM127.716 87.8686L126.687 89.5836L126.713 89.599L126.739 89.6136L127.716 87.8686ZM161.556 89.5486H163.556V87.5486H161.556V89.5486ZM161.556 99.7486V101.749H163.556V99.7486H161.556ZM127.476 101.789L128.524 103.492L128.533 103.487L128.542 103.481L127.476 101.789ZM122.556 106.949L120.808 105.977L120.801 105.989L120.795 106L122.556 106.949ZM122.556 120.389L120.795 121.337L120.795 121.337L122.556 120.389ZM127.356 125.429L126.308 127.132L126.332 127.147L126.356 127.161L127.356 125.429ZM165.996 127.229H167.996V125.229H165.996V127.229ZM165.996 137.429V139.429H167.996V137.429H165.996ZM133.116 135.429C128.799 135.429 125.042 134.428 121.785 132.474L119.727 135.904C123.67 138.269 128.153 139.429 133.116 139.429V135.429ZM121.83 132.501C118.587 130.438 116.06 127.762 114.224 124.457L110.728 126.4C112.892 130.295 115.885 133.46 119.682 135.876L121.83 132.501ZM114.224 124.457C112.394 121.163 111.476 117.579 111.476 113.669H107.476C107.476 118.238 108.557 122.494 110.728 126.4L114.224 124.457ZM111.476 113.669C111.476 110.148 112.279 106.867 113.888 103.797L110.344 101.941C108.432 105.591 107.476 109.509 107.476 113.669H111.476ZM113.87 103.829C115.524 100.809 117.889 98.4371 121.011 96.695L119.061 93.2022C115.302 95.3001 112.388 98.2082 110.362 101.908L113.87 103.829ZM121.117 93.2662C118.01 91.2689 115.693 88.8264 114.108 85.9447L110.603 87.8724C112.539 91.3908 115.341 94.3082 118.954 96.6309L121.117 93.2662ZM114.108 85.9447C112.504 83.0285 111.716 79.9987 111.716 76.8286H107.716C107.716 80.6985 108.687 84.3886 110.603 87.8724L114.108 85.9447ZM111.716 76.8286C111.716 72.8309 112.637 69.2552 114.455 66.0566L110.977 64.0805C108.794 67.9219 107.716 72.1862 107.716 76.8286H111.716ZM114.438 66.086C116.346 62.8565 118.904 60.2988 122.133 58.3904L120.098 54.9467C116.288 57.1983 113.246 60.2407 110.994 64.0511L114.438 66.086ZM122.162 58.3732C125.358 56.4117 128.875 55.4286 132.756 55.4286V51.4286C128.157 51.4286 123.913 52.6054 120.07 54.9639L122.162 58.3732ZM132.756 55.4286H165.996V51.4286H132.756V55.4286ZM163.996 53.4286V63.6286H167.996V53.4286H163.996ZM165.996 61.6286H134.076V65.6286H165.996V61.6286ZM134.076 61.6286C131.258 61.6286 128.684 62.3152 126.416 63.7326L128.536 67.1246C130.108 66.142 131.934 65.6286 134.076 65.6286V61.6286ZM126.416 63.7326C124.207 65.1131 122.453 66.9618 121.171 69.2514L124.661 71.2058C125.619 69.4953 126.905 68.1441 128.536 67.1246L126.416 63.7326ZM121.188 69.2208C119.87 71.481 119.236 74.0364 119.236 76.8286H123.236C123.236 74.6607 123.722 72.8161 124.643 71.2363L121.188 69.2208ZM119.236 76.8286C119.236 79.4865 119.882 81.9568 121.188 84.1963L124.643 82.1808C123.71 80.5804 123.236 78.8106 123.236 76.8286H119.236ZM121.22 84.2486C122.593 86.4448 124.424 88.2261 126.687 89.5836L128.745 86.1536C127.007 85.1111 125.639 83.7724 124.612 82.1286L121.22 84.2486ZM126.739 89.6136C129.051 90.9088 131.59 91.5486 134.316 91.5486V87.5486C132.241 87.5486 130.38 87.0684 128.693 86.1236L126.739 89.6136ZM134.316 91.5486H161.556V87.5486H134.316V91.5486ZM159.556 89.5486V99.7486H163.556V89.5486H159.556ZM161.556 97.7486H135.156V101.749H161.556V97.7486ZM135.156 97.7486C131.88 97.7486 128.938 98.5048 126.41 100.096L128.542 103.481C130.334 102.352 132.512 101.749 135.156 101.749V97.7486ZM126.428 100.085C124.052 101.547 122.172 103.521 120.808 105.977L124.304 107.92C125.34 106.056 126.74 104.59 128.524 103.492L126.428 100.085ZM120.795 106C119.515 108.377 118.876 110.943 118.876 113.669H122.876C122.876 111.594 123.356 109.681 124.317 107.897L120.795 106ZM118.876 113.669C118.876 116.394 119.515 118.961 120.795 121.337L124.317 119.44C123.356 117.657 122.876 115.743 122.876 113.669H118.876ZM120.795 121.337C122.088 123.738 123.938 125.674 126.308 127.132L128.404 123.725C126.613 122.623 125.264 121.2 124.317 119.44L120.795 121.337ZM126.356 127.161C128.788 128.563 131.584 129.229 134.676 129.229V125.229C132.168 125.229 130.084 124.694 128.355 123.696L126.356 127.161ZM134.676 129.229H165.996V125.229H134.676V129.229ZM163.996 127.229V137.429H167.996V127.229H163.996ZM165.996 135.429H133.116V139.429H165.996V135.429Z" fill="white" mask="url(#path-4-outside-2_607_16)"/>
<defs>
<clipPath id="clip0_607_16">
<rect width="200" height="200" fill="white"/>
</clipPath>
</defs>
</svg>
